<?xml version="1.0" standalone="no"?>
<!DOCTYPE svg PUBLIC "-//W3C//DTD SVG 20010904//EN"
 "http://www.w3.org/TR/2001/REC-SVG-20010904/DTD/svg10.dtd">
<svg version="1.0" xmlns="http://www.w3.org/2000/svg"
 width="300.000000pt" height="87.000000pt" viewBox="0 0 300.000000 87.000000"
 preserveAspectRatio="xMidYMid meet">

<g transform="translate(0.000000,87.000000) scale(0.100000,-0.100000)"
fill="#000000" stroke="none">
<path d="M88 809 c-12 -6 -18 -22 -18 -44 l0 -35 180 0 180 0 32 -29 c28 -25
33 -36 33 -76 0 -40 -5 -51 -33 -76 -24 -22 -42 -29 -72 -29 -40 0 -40 0 -40
-40 l0 -40 53 0 c55 0 85 -17 106 -57 6 -12 11 -73 11 -142 l0 -121 38 15
c153 64 164 258 19 341 l-37 20 29 21 c65 49 80 164 31 233 -43 61 -80 70
-300 69 -114 0 -202 -4 -212 -10z"/>
<path d="M77 680 c3 -11 10 -20 15 -20 6 0 7 8 4 17 -6 16 -6 16 12 0 10 -9
25 -17 33 -17 10 1 8 5 -5 15 -11 8 -15 15 -9 15 6 0 16 -7 23 -15 9 -11 29
-16 64 -15 28 1 70 -2 94 -6 40 -6 42 -6 42 20 l0 26 -139 0 c-134 0 -139 -1
-134 -20z"/>
<path d="M780 585 l0 -85 55 0 c49 0 57 3 67 25 9 20 8 28 -6 44 -15 16 -15
22 -5 39 20 33 -12 62 -68 62 l-43 0 0 -85z m94 48 c8 -21 -18 -43 -51 -43
-19 0 -23 5 -23 30 0 27 3 30 34 30 23 0 36 -6 40 -17z m0 -69 c9 -8 16 -17
16 -19 0 -14 -37 -35 -61 -35 -27 0 -29 3 -29 35 0 32 2 35 29 35 16 0 37 -7
45 -16z"/>
<path d="M961 591 c-35 -90 -35 -91 -21 -91 5 0 12 11 16 25 5 21 12 25 45 25
33 0 41 -4 49 -25 9 -23 31 -36 29 -17 -2 21 -66 156 -76 159 -6 2 -24 -30
-42 -76z m64 -21 c-5 -8 -44 -6 -50 2 -1 2 5 19 13 38 l15 35 14 -33 c7 -18
11 -37 8 -42z"/>
<path d="M1110 585 c0 -50 4 -85 10 -85 6 0 10 16 10 35 0 30 3 35 24 35 16 0
34 -13 54 -37 38 -48 54 -36 18 12 -20 26 -23 35 -12 35 19 0 38 34 30 55 -9
24 -38 35 -88 35 l-46 0 0 -85z m108 53 c22 -22 -5 -48 -48 -48 -38 0 -40 2
-40 30 0 28 2 30 38 30 21 0 43 -5 50 -12z"/>
<path d="M1290 585 l0 -85 48 0 c64 0 83 16 89 72 5 40 2 50 -20 72 -20 20
-36 26 -72 26 l-45 0 0 -85z m104 43 c36 -51 5 -118 -54 -118 l-30 0 0 70 0
70 34 0 c25 0 39 -7 50 -22z"/>
<path d="M1469 608 c0 -35 -2 -73 -3 -85 -2 -21 1 -23 50 -23 74 0 103 34 90
106 -9 43 -39 64 -93 64 l-43 0 -1 -62z m107 17 c11 -17 14 -35 10 -60 -8 -39
-33 -58 -74 -53 -26 3 -27 6 -28 63 -1 33 0 63 3 68 2 4 20 7 38 7 26 0 39 -6
51 -25z"/>
<path d="M1640 585 c0 -85 16 -119 22 -47 3 37 3 37 51 40 l47 3 0 -40 c0 -23
5 -41 10 -41 6 0 10 35 10 85 0 50 -4 85 -10 85 -5 0 -10 -16 -10 -35 l0 -35
-50 0 -50 0 0 35 c0 19 -4 35 -10 35 -6 0 -10 -35 -10 -85z"/>
<path d="M1841 593 c-34 -85 -36 -93 -21 -93 5 0 12 11 16 25 5 21 12 25 45
25 33 0 41 -4 49 -25 9 -23 31 -36 29 -17 -2 21 -66 156 -75 159 -6 2 -26 -31
-43 -74z m69 -20 c0 -14 -46 -18 -53 -5 -2 4 3 23 11 42 l15 35 13 -30 c7 -16
13 -36 14 -42z"/>
<path d="M1990 585 c0 -50 4 -85 10 -85 6 0 10 30 11 68 l1 67 22 -65 c13 -36
29 -65 36 -65 7 0 23 29 36 65 l22 65 1 -67 c1 -38 5 -68 11 -68 6 0 10 35 10
85 0 108 -17 113 -51 15 -13 -38 -26 -70 -29 -70 -3 0 -16 32 -29 70 -32 101
-51 95 -51 -15z"/>
<path d="M2217 603 c-40 -103 -40 -103 -30 -103 6 0 15 11 21 25 9 20 19 25
47 25 28 0 38 -5 47 -25 13 -28 34 -35 24 -7 -38 103 -61 152 -71 152 -7 0
-24 -30 -38 -67z m63 -23 c0 -10 -9 -16 -25 -16 -28 0 -30 11 -14 53 l11 28
13 -25 c8 -14 14 -32 15 -40z"/>
<path d="M2360 585 c0 -50 4 -85 10 -85 6 0 10 29 10 67 l0 68 45 -68 c25 -37
51 -67 58 -67 16 0 22 156 7 165 -6 4 -10 -20 -10 -59 0 -36 -3 -66 -7 -66 -5
0 -27 30 -51 65 -23 36 -47 65 -52 65 -6 0 -10 -35 -10 -85z"/>
<path d="M147 653 c-4 -3 -7 -114 -7 -245 l0 -238 -40 0 c-34 0 -40 -3 -40
-21 0 -20 4 -20 203 -18 l203 2 2 29 c1 15 -2 28 -8 28 -6 0 -10 -6 -9 -12 3
-24 -1 -38 -10 -38 -5 0 -8 12 -5 28 3 21 2 24 -7 12 -9 -13 -10 -13 -6 0 2 8
9 16 15 16 7 1 16 2 20 3 4 0 8 11 9 24 1 21 1 21 -8 2 -9 -18 -18 -20 -95
-17 -60 3 -90 0 -102 -10 -15 -11 -15 -11 -5 3 7 9 9 20 5 24 -4 5 -1 5 6 1 9
-6 12 38 12 203 0 162 -3 211 -12 212 -7 0 -37 0 -67 -1 -36 -1 -51 2 -46 9 7
12 2 15 -8 4z m105 -35 c-7 -7 -12 -8 -12 -2 0 14 12 26 19 19 2 -3 -1 -11 -7
-17z m-89 -59 c-6 -6 -7 3 -4 23 4 28 6 29 9 9 2 -13 0 -27 -5 -32z m97 -204
c-7 -45 -7 -46 -9 -13 -1 32 8 74 14 66 1 -2 -1 -25 -5 -53z m-12 -141 c-10
-9 -95 -9 -95 0 0 7 20 10 49 7 27 -1 48 -5 46 -7z m68 -23 c-3 -4 6 -6 19 -3
25 4 35 -12 13 -21 -7 -3 2 -6 20 -6 18 -1 31 3 28 7 -2 4 0 14 6 22 8 13 9
12 5 -2 -3 -9 1 -19 9 -22 9 -3 12 -11 8 -17 -4 -8 -9 -7 -15 2 -5 8 -9 9 -9
4 0 -6 -17 -9 -40 -7 -22 2 -37 8 -34 13 3 5 -2 9 -11 9 -9 0 -14 -4 -11 -8 3
-5 -2 -9 -10 -9 -10 0 -11 4 -4 11 5 5 10 14 10 20 0 6 -5 5 -12 -2 -17 -17
-33 -15 -18 3 13 16 55 22 46 6z m-65 -22 c9 -17 8 -20 -1 -14 -7 5 -29 9 -48
11 -57 5 -64 24 -9 24 37 0 49 -4 58 -21z m-146 -19 c3 -6 -4 -10 -17 -10 -18
0 -20 2 -8 10 19 12 18 12 25 0z"/>
<path d="M2797 615 c43 -18 62 -58 43 -88 -12 -20 -12 -21 3 -8 10 7 17 22 17
33 0 25 -53 78 -77 78 -11 -1 -6 -6 14 -15z"/>
<path d="M2720 540 c0 -14 4 -19 13 -15 6 4 4 0 -5 -8 -10 -8 -18 -22 -18 -31
0 -13 -5 -16 -20 -11 -27 8 -40 -39 -17 -62 14 -15 18 -15 41 1 26 17 34 36
16 36 -18 0 8 38 30 45 27 9 25 17 -10 43 l-30 23 0 -21z"/>
<path d="M2328 362 c-85 -36 -88 -38 -88 -69 0 -36 -9 -32 178 -74 56 -12 101
-24 99 -26 -2 -2 -73 9 -158 23 -202 35 -193 35 -197 2 -2 -16 -2 -28 0 -28 2
0 88 -15 191 -34 l189 -33 139 45 c135 44 139 46 139 74 0 20 -5 28 -18 28
-10 0 -22 -4 -27 -9 -15 -14 -197 -71 -225 -71 -17 0 -3 10 44 30 38 16 73 34
76 40 4 6 13 10 21 8 8 -2 14 3 13 10 -1 6 -2 27 -2 46 l-2 33 -134 22 c-73
11 -137 21 -142 20 -5 0 -48 -17 -96 -37z m50 -168 c114 -19 162 -31 162 -41
0 -17 5 -18 -187 17 -91 17 -170 30 -174 30 -5 0 -9 7 -9 16 0 12 6 15 23 11
12 -3 95 -17 185 -33z"/>
<path d="M1044 265 c0 -50 1 -71 3 -48 2 23 2 64 0 90 -2 26 -3 8 -3 -42z"/>
<path d="M1187 269 c1 -45 4 -84 8 -87 3 -4 5 33 4 81 -1 48 -4 87 -8 87 -3 0
-5 -36 -4 -81z"/>
<path d="M1252 268 l3 -83 30 -1 c28 -1 28 -1 3 3 -28 4 -28 5 -28 79 l0 75
36 -3 c68 -6 72 -62 4 -60 -16 0 -30 -2 -30 -6 0 -4 16 -8 36 -8 50 -2 67 -29
38 -58 -8 -9 -12 -16 -7 -16 30 0 43 49 18 70 -11 9 -12 16 -2 31 20 31 -2 53
-57 57 l-47 3 3 -83z"/>
<path d="M1420 263 c3 -55 6 -72 8 -45 3 39 5 42 32 42 24 0 35 -8 55 -40 14
-22 27 -40 30 -40 12 0 3 21 -20 49 -26 30 -26 30 -5 41 25 13 28 65 4 74 -9
3 -37 6 -62 6 l-47 0 5 -87z m94 71 c19 -7 21 -35 4 -52 -7 -7 -29 -12 -50
-12 -37 0 -38 1 -38 35 0 33 2 35 34 35 19 0 41 -3 50 -6z"/>
<path d="M1629 323 c-40 -102 -50 -135 -46 -139 3 -3 9 9 15 25 7 19 18 31 29
31 14 0 15 2 4 9 -11 7 -11 16 1 52 l15 44 17 -39 c20 -48 20 -53 -1 -59 -13
-3 -12 -5 5 -6 16 -1 26 -10 34 -32 6 -16 13 -28 15 -25 8 8 -58 166 -68 166
-5 0 -14 -12 -20 -27z"/>
<path d="M1762 263 c1 -49 3 -69 5 -45 4 38 7 42 31 42 19 0 38 -12 65 -42 38
-43 40 -37 5 14 -22 32 -22 38 -3 38 8 0 18 12 21 27 9 35 -16 53 -78 53 l-48
0 2 -87z m109 55 c15 -28 -10 -48 -63 -48 -37 0 -38 1 -38 35 0 35 0 35 45 35
35 0 47 -4 56 -22z"/>
<path d="M1955 301 c24 -34 35 -60 36 -87 l2 -39 6 45 c4 27 18 61 35 83 16
21 26 40 23 43 -3 3 -18 -13 -33 -35 -14 -23 -29 -41 -33 -41 -3 0 -16 18 -29
40 -12 22 -27 40 -32 40 -6 0 6 -22 25 -49z"/>
<path d="M2738 273 c7 -3 16 -2 19 1 4 3 -2 6 -13 5 -11 0 -14 -3 -6 -6z"/>
<path d="M1110 190 l-25 -8 28 -1 c15 -1 27 4 27 9 0 6 -1 10 -2 9 -2 -1 -14
-5 -28 -9z"/>
<path d="M2680 154 l-135 -44 -196 35 c-107 19 -198 35 -202 35 -10 0 -9 -48
1 -54 16 -10 313 -57 340 -54 15 2 -51 16 -146 32 -160 27 -194 37 -178 53 6
6 353 -54 369 -64 4 -2 5 -8 2 -13 -12 -19 65 -7 173 27 74 24 116 42 123 54
6 13 6 19 -1 19 -5 0 -10 -4 -10 -10 0 -5 -7 -7 -15 -4 -8 4 -15 1 -15 -5 0
-6 -7 -8 -15 -5 -8 4 -15 1 -15 -5 0 -6 -7 -8 -15 -5 -8 4 -15 1 -15 -5 0 -6
-7 -8 -17 -4 -10 4 -14 2 -10 -4 5 -7 -1 -9 -15 -5 -13 3 -19 1 -15 -5 5 -7
-1 -9 -15 -5 -13 3 -19 1 -15 -5 5 -7 -1 -9 -15 -5 -13 3 -19 1 -15 -5 5 -7
-1 -9 -15 -5 -14 3 -19 1 -14 -6 5 -8 1 -10 -9 -6 -26 10 -8 19 130 64 72 23
132 44 134 46 11 10 -35 -2 -159 -42z"/>
</g>
</svg>
