<?xml version="1.0" encoding="UTF-8"?>
<svg version="1.1" xmlns="http://www.w3.org/2000/svg" width="240" height="240">
<path d="M0 0 C3.89796965 2.78291409 7.48319743 5.75237034 11 9 C11.70253906 9.62261719 12.40507812 10.24523437 13.12890625 10.88671875 C22.7580354 19.8751622 28.97799747 30.96688806 34 43 C33.01 43.33 32.02 43.66 31 44 C30.5153125 42.96101563 30.030625 41.92203125 29.53125 40.8515625 C25.51115925 32.41200738 21.393792 24.92171978 15 18 C13.80697266 16.70449219 13.80697266 16.70449219 12.58984375 15.3828125 C7.27741688 9.84869239 2.62792935 6.41861957 -4 2 C-4 27.41 -4 52.82 -4 79 C10.43544337 78.96039338 10.43544337 78.96039338 24.87084961 78.90991211 C26.67301372 78.90699305 28.4751785 78.90444447 30.27734375 78.90234375 C31.22226685 78.89722778 32.16718994 78.89211182 33.14074707 78.88684082 C34.48054626 78.88665955 34.48054626 78.88665955 35.84741211 78.88647461 C36.62684677 78.884254 37.40628143 78.88203339 38.20933533 78.87974548 C40 79 40 79 41 80 C41.17679462 105.17555416 31.77694698 127.71636469 14.9453125 146.20703125 C13 148 13 148 10 149 C10.99 153.455 10.99 153.455 12 158 C9.6875 159.125 9.6875 159.125 7 160 C6.01 159.34 5.02 158.68 4 158 C3.95875 158.61875 3.9175 159.2375 3.875 159.875 C3 162 3 162 0.1875 163.25 C-3 164 -3 164 -7 164 C-7.33 163.34 -7.66 162.68 -8 162 C-8.33 163.32 -8.66 164.64 -9 166 C-10.65 166 -12.3 166 -14 166 C-14 158.74 -14 151.48 -14 144 C-11.36 144 -8.72 144 -6 144 C-6 123.87 -6 103.74 -6 83 C-19.86 83 -33.72 83 -48 83 C-48.66 84.65 -49.32 86.3 -50 88 C-50.7780619 89.59267369 -51.57871501 91.17445612 -52.3984375 92.74609375 C-53.10891235 94.11000244 -53.10891235 94.11000244 -53.83374023 95.50146484 C-54.34235596 96.47035645 -54.85097168 97.43924805 -55.375 98.4375 C-55.90230713 99.44506348 -56.42961426 100.45262695 -56.97290039 101.49072266 C-64.12049744 115.09984908 -71.5246302 128.56875481 -79 142 C-76.03 142.33 -73.06 142.66 -70 143 C-69.95758277 145.33294775 -69.95907063 147.66702567 -70 150 C-70.33 150.33 -70.66 150.66 -71 151 C-71.04092937 153.33297433 -71.04241723 155.66705225 -71 158 C-72.65 157.67 -74.3 157.34 -76 157 C-76 157.66 -76 158.32 -76 159 C-74.35 159.33 -72.7 159.66 -71 160 C-71 162.31 -71 164.62 -71 167 C-72.64671412 166.69217504 -74.29235576 166.37860766 -75.9375 166.0625 C-76.85402344 165.88847656 -77.77054687 165.71445313 -78.71484375 165.53515625 C-81 165 -81 165 -82 164 C-82.23527773 161.65012738 -82.41386417 159.29443961 -82.5625 156.9375 C-82.64628906 155.64714844 -82.73007813 154.35679687 -82.81640625 153.02734375 C-82.87699219 152.02832031 -82.93757813 151.02929688 -83 150 C-83 153.63 -83 157.26 -83 161 C-86.82610083 162.91305041 -90.26924867 162.22484656 -94.25 161 C-109.04831874 153.99027007 -119.99503265 139.82234241 -128 126 C-128.49242187 125.15824219 -128.98484375 124.31648437 -129.4921875 123.44921875 C-141.48846746 101.2821797 -142.71076037 75.26887298 -135.96875 51.33984375 C-133.26651164 43.24225785 -129.22934136 31.22934136 -123 25 C-123.89138672 25.09087891 -123.89138672 25.09087891 -124.80078125 25.18359375 C-127.53345666 25.45983621 -130.26670549 25.72995488 -133 26 C-134.40185547 26.14308594 -134.40185547 26.14308594 -135.83203125 26.2890625 C-141.25318323 26.81980465 -146.55322171 27.1027694 -152 27 C-152.50961846 25.60764957 -153.00724909 24.21090882 -153.5 22.8125 C-153.7784375 22.03519531 -154.056875 21.25789063 -154.34375 20.45703125 C-155.29503827 16.89536266 -155.552017 14.17868352 -153.96191406 10.78344727 C-153.24600098 9.68601196 -153.24600098 9.68601196 -152.515625 8.56640625 C-151.99226562 7.75236328 -151.46890625 6.93832031 -150.9296875 6.09960938 C-150.09824219 4.84374023 -150.09824219 4.84374023 -149.25 3.5625 C-148.71117187 2.72912109 -148.17234375 1.89574219 -147.6171875 1.03710938 C-146.5630939 -0.58902282 -145.49244928 -2.20456452 -144.40429688 -3.80810547 C-142.82877979 -6.14711856 -142.82877979 -6.14711856 -141.421875 -9.53515625 C-139 -12 -139 -12 -126 -13 C-123.03 -3.1 -120.06 6.8 -117 17 C-115.30875 15.205625 -113.6175 13.41125 -111.875 11.5625 C-105.5922609 5.13983353 -98.76548841 0.4557584 -91 -4 C-90.12472656 -4.50273438 -89.24945313 -5.00546875 -88.34765625 -5.5234375 C-60.55402968 -20.38874831 -25.95842597 -16.76838877 0 0 Z M-103.83984375 13.19140625 C-123.01935434 38.12823829 -126.30827451 71.53003192 -122.34375 101.9140625 C-119.20528676 121.05508083 -110.88389527 139.28542053 -97 153 C-96.67 153 -96.34 153 -96 153 C-95.896875 151.741875 -95.79375 150.48375 -95.6875 149.1875 C-95.35894495 146.71676602 -95.07639415 145.14005593 -93.875 142.9375 C-90.77872224 141.38936112 -88.26575048 142.22809534 -85 143 C-84.01 143.99 -84.01 143.99 -83 145 C-82.69932617 144.41847168 -82.39865234 143.83694336 -82.08886719 143.23779297 C-76.59470148 132.62529072 -71.06507291 122.03760086 -65.3125 111.5625 C-60.31380672 102.45937892 -55.42433581 93.30163094 -50.5625 84.125 C-43.45170586 70.70786878 -36.26405639 57.33491519 -29 44 C-28.49130371 43.06510742 -27.98260742 42.13021484 -27.45849609 41.16699219 C-26.43502014 39.28613211 -25.41109743 37.40551506 -24.38671875 35.52514648 C-23.39230283 33.69964167 -22.39878768 31.87364584 -21.40625 30.04711914 C-18.89696568 25.43849557 -16.35750758 20.85011299 -13.76953125 16.28515625 C-12.99343506 14.90602051 -12.99343506 14.90602051 -12.20166016 13.49902344 C-11.21372686 11.74616662 -10.21766005 9.99786192 -9.21240234 8.25488281 C-8.77492676 7.4759668 -8.33745117 6.69705078 -7.88671875 5.89453125 C-7.49701904 5.21237549 -7.10731934 4.53021973 -6.70581055 3.82739258 C-5.7068598 1.81809073 -5.7068598 1.81809073 -7 -1 C-9.43342019 -2.31698018 -11.77117443 -3.43450686 -14.3125 -4.5 C-15.0329248 -4.80824707 -15.75334961 -5.11649414 -16.49560547 -5.43408203 C-47.61654017 -18.39136905 -81.47356142 -12.72507962 -103.83984375 13.19140625 Z M-136 -9 C-135.34 -7.68 -134.68 -6.36 -134 -5 C-132.97895449 -5.97850195 -131.9793879 -6.97980427 -131 -8 C-131 -8.33 -131 -8.66 -131 -9 C-132.65 -9 -134.3 -9 -136 -9 Z M-139 -7 C-139.66 -5.68 -140.32 -4.36 -141 -3 C-139.35 -3 -137.7 -3 -136 -3 C-136.66 -4.32 -137.32 -5.64 -138 -7 C-138.33 -7 -138.66 -7 -139 -7 Z M-129 -7 C-131.26739294 -4.26719906 -131.26739294 -4.26719906 -130.81640625 -1.61328125 C-129.91117356 1.28432961 -128.67767845 3.33182008 -126.9375 5.8125 C-126.38964844 6.60269531 -125.84179688 7.39289062 -125.27734375 8.20703125 C-124.85582031 8.79871094 -124.43429688 9.39039062 -124 10 C-122.69990319 6.09970958 -123.59205816 4.26488883 -124.8125 0.375 C-125.16957031 -0.79289062 -125.52664062 -1.96078125 -125.89453125 -3.1640625 C-126.68161259 -6.12035977 -126.68161259 -6.12035977 -129 -7 Z M-141 0 C-140.34 1.32 -139.68 2.64 -139 4 C-138.01 2.68 -137.02 1.36 -136 0 C-137.65 0 -139.3 0 -141 0 Z M-134 1 C-134.99 2.98 -135.98 4.96 -137 7 C-135.54550599 8.0055761 -134.08627557 9.00430435 -132.625 10 C-131.81289062 10.556875 -131.00078125 11.11375 -130.1640625 11.6875 C-128.13681813 13.17285844 -128.13681813 13.17285844 -126 13 C-127.51890531 8.44328408 -129.95402262 4.68276708 -133 1 C-133.33 1 -133.66 1 -134 1 Z M-144 2 C-144.99 3.485 -144.99 3.485 -146 5 C-144.68 4.67 -143.36 4.34 -142 4 C-142.66 3.34 -143.32 2.68 -144 2 Z M-146 8 C-145.67 9.32 -145.34 10.64 -145 12 C-144.34 12 -143.68 12 -143 12 C-142.67 10.68 -142.34 9.36 -142 8 C-143.32 8 -144.64 8 -146 8 Z M-139 9 C-139.99 10.98 -140.98 12.96 -142 15 C-140.27318563 15.50806447 -138.54342021 16.00610467 -136.8125 16.5 C-135.84957031 16.7784375 -134.88664062 17.056875 -133.89453125 17.34375 C-131.14654124 17.96677608 -128.80401584 18.12302812 -126 18 C-130.08733141 14.55131413 -134.43805907 11.76206846 -139 9 Z M-123 10 C-122 12 -122 12 -122 12 Z M-150 11 C-150.33 11.99 -150.66 12.98 -151 14 C-149.68 13.67 -148.36 13.34 -147 13 C-147.33 12.34 -147.66 11.68 -148 11 C-148.66 11 -149.32 11 -150 11 Z M-152 17 C-151.67 18.32 -151.34 19.64 -151 21 C-150.01 20.67 -149.02 20.34 -148 20 C-147.67 19.01 -147.34 18.02 -147 17 C-148.65 17 -150.3 17 -152 17 Z M-144 18 C-145.98 20.97 -145.98 20.97 -148 24 C-141.4 23.34 -134.8 22.68 -128 22 C-131.71366429 20.14316785 -134.2158891 19.48888644 -138.25 18.875 C-139.32765625 18.70742187 -140.4053125 18.53984375 -141.515625 18.3671875 C-142.74539062 18.18542969 -142.74539062 18.18542969 -144 18 Z M-30 49 C-32.22049967 52.79902408 -34.2180263 56.69104493 -36.1875 60.625 C-37.22140135 62.65949238 -38.25651636 64.69336854 -39.29296875 66.7265625 C-39.96622192 68.06581787 -39.96622192 68.06581787 -40.65307617 69.43212891 C-41.59357773 71.22516776 -42.60580436 72.98158559 -43.66918945 74.70458984 C-45.16718979 76.84615695 -45.16718979 76.84615695 -45 79 C-32.13 79 -19.26 79 -6 79 C-5.87625 72.008125 -5.87625 72.008125 -5.75 64.875 C-5.69537598 62.68593018 -5.69537598 62.68593018 -5.63964844 60.45263672 C-5.6296582 59.29006348 -5.61966797 58.12749023 -5.609375 56.9296875 C-5.58842773 55.74616699 -5.56748047 54.56264648 -5.54589844 53.34326172 C-6.09760099 49.28142584 -7.450219 47.17312475 -10 44 C-13.22305046 41.85129969 -14.53662038 41.59939802 -18.3125 41.4375 C-19.23675781 41.37433594 -20.16101563 41.31117187 -21.11328125 41.24609375 C-25.61211334 42.42102554 -27.46440728 45.22971213 -30 49 Z M-4 83 C-4.02314421 91.04925101 -4.04092572 99.09848817 -4.05181217 107.14776421 C-4.05703644 110.8851425 -4.06412584 114.62249807 -4.07543945 118.35986328 C-4.0862845 121.96489816 -4.09228028 125.56991116 -4.09487724 129.17496109 C-4.09672857 130.55210846 -4.1003436 131.92925459 -4.10573006 133.30639267 C-4.11296181 135.23143094 -4.11340824 137.15649112 -4.11352539 139.08154297 C-4.115746 140.17852509 -4.11796661 141.2755072 -4.12025452 142.4057312 C-4.17631645 144.98513224 -4.17631645 144.98513224 -3 147 C-2.85624578 150.37822416 -2.92463652 152.77390955 -4 156 C-3.34 156.66 -2.68 157.32 -2 158 C-0.08373163 153.01770224 0.5547115 148.27315333 1 143 C3.31 143 5.62 143 8 143 C8.33 144.65 8.66 146.3 9 148 C9.33 147.34 9.66 146.68 10 146 C10.598125 145.71769531 11.19625 145.43539062 11.8125 145.14453125 C18.27866502 141.76134134 22.21685785 134.41188262 24.5 127.75 C27.01864517 118.20388505 27.60408785 108.34434496 23.31640625 99.24609375 C18.92935802 91.76077408 13.35202336 86.69532056 5 84 C3.44477361 83.78680855 1.88532173 83.60315409 0.32373047 83.44311523 C-0.48613312 83.35851547 -1.2959967 83.27391571 -2.13040161 83.18675232 C-3.05585281 83.09430992 -3.05585281 83.09430992 -4 83 Z M-90 147 C-90 147.66 -90 148.32 -90 149 C-89.34 148.67 -88.68 148.34 -88 148 C-88.66 147.67 -89.32 147.34 -90 147 Z M-91 149 C-91 150.98 -91 152.96 -91 155 C-90.67 155 -90.34 155 -90 155 C-90 153.02 -90 151.04 -90 149 C-90.33 149 -90.66 149 -91 149 Z " fill="#000000" transform="translate(165,56)"/>
<path d="M0 0 C1.3189103 4.20635138 2.62899071 8.41540259 3.9375 12.625 C4.49727539 14.40970703 4.49727539 14.40970703 5.06835938 16.23046875 C5.42607422 17.38417969 5.78378906 18.53789063 6.15234375 19.7265625 C6.48226318 20.78439941 6.81218262 21.84223633 7.15209961 22.93212891 C7.98492424 25.94545292 8.54428296 28.90922579 9 32 C8.34 32 7.68 32 7 32 C6.505 30.515 6.505 30.515 6 29 C5.731875 29.639375 5.46375 30.27875 5.1875 30.9375 C4 33 4 33 1 34 C1 34.66 1 35.32 1 36 C2.32 36.33 3.64 36.66 5 37 C1.3344862 37.50869827 -2.33256427 38.00536408 -6 38.5 C-7.02996094 38.64308594 -8.05992188 38.78617188 -9.12109375 38.93359375 C-14.80632532 39.69403874 -20.26466539 40.16544234 -26 40 C-26.50961846 38.60764957 -27.00724909 37.21090882 -27.5 35.8125 C-27.7784375 35.03519531 -28.056875 34.25789063 -28.34375 33.45703125 C-29.29503827 29.89536266 -29.552017 27.17868352 -27.96191406 23.78344727 C-27.24600098 22.68601196 -27.24600098 22.68601196 -26.515625 21.56640625 C-25.99226563 20.75236328 -25.46890625 19.93832031 -24.9296875 19.09960938 C-24.09824219 17.84374023 -24.09824219 17.84374023 -23.25 16.5625 C-22.71117187 15.72912109 -22.17234375 14.89574219 -21.6171875 14.03710938 C-20.56713826 12.41721634 -19.5096763 10.8020991 -18.4440918 9.19238281 C-17.55176405 7.83767391 -16.67269717 6.47399447 -15.81567383 5.09667969 C-13.29947073 1.09316867 -13.29947073 1.09316867 -10.1875 0.125 C-6.78856706 -0.00829149 -3.40122673 -0.00805024 0 0 Z M-10 4 C-9.34 5.32 -8.68 6.64 -8 8 C-6.97895449 7.02149805 -5.9793879 6.02019573 -5 5 C-5 4.67 -5 4.34 -5 4 C-6.65 4 -8.3 4 -10 4 Z M-13 6 C-13.66 7.32 -14.32 8.64 -15 10 C-13.35 10 -11.7 10 -10 10 C-10.66 8.68 -11.32 7.36 -12 6 C-12.33 6 -12.66 6 -13 6 Z M-3 6 C-5.26739294 8.73280094 -5.26739294 8.73280094 -4.81640625 11.38671875 C-3.91117356 14.28432961 -2.67767845 16.33182008 -0.9375 18.8125 C-0.38964844 19.60269531 0.15820312 20.39289062 0.72265625 21.20703125 C1.14417969 21.79871094 1.56570312 22.39039062 2 23 C3.30009681 19.09970958 2.40794184 17.26488883 1.1875 13.375 C0.83042969 12.20710938 0.47335938 11.03921875 0.10546875 9.8359375 C-0.68161259 6.87964023 -0.68161259 6.87964023 -3 6 Z M-15 13 C-14.34 14.32 -13.68 15.64 -13 17 C-12.01 15.68 -11.02 14.36 -10 13 C-11.65 13 -13.3 13 -15 13 Z M-8 14 C-8.99 15.98 -9.98 17.96 -11 20 C-9.54550599 21.0055761 -8.08627557 22.00430435 -6.625 23 C-5.81289063 23.556875 -5.00078125 24.11375 -4.1640625 24.6875 C-2.13681813 26.17285844 -2.13681813 26.17285844 0 26 C-1.51890531 21.44328408 -3.95402262 17.68276708 -7 14 C-7.33 14 -7.66 14 -8 14 Z M-18 15 C-18.99 16.485 -18.99 16.485 -20 18 C-18.68 17.67 -17.36 17.34 -16 17 C-16.66 16.34 -17.32 15.68 -18 15 Z M-20 21 C-19.67 22.32 -19.34 23.64 -19 25 C-18.34 25 -17.68 25 -17 25 C-16.67 23.68 -16.34 22.36 -16 21 C-17.32 21 -18.64 21 -20 21 Z M-13 22 C-13.99 23.98 -14.98 25.96 -16 28 C-14.27318563 28.50806447 -12.54342021 29.00610467 -10.8125 29.5 C-9.84957031 29.7784375 -8.88664062 30.056875 -7.89453125 30.34375 C-5.14654124 30.96677608 -2.80401584 31.12302812 0 31 C-4.08733141 27.55131413 -8.43805907 24.76206846 -13 22 Z M3 23 C4 25 4 25 4 25 Z M-24 24 C-24.33 24.99 -24.66 25.98 -25 27 C-23.68 26.67 -22.36 26.34 -21 26 C-21.33 25.34 -21.66 24.68 -22 24 C-22.66 24 -23.32 24 -24 24 Z M-26 30 C-25.67 31.32 -25.34 32.64 -25 34 C-24.01 33.67 -23.02 33.34 -22 33 C-21.67 32.01 -21.34 31.02 -21 30 C-22.65 30 -24.3 30 -26 30 Z M-18 31 C-19.98 33.97 -19.98 33.97 -22 37 C-15.4 36.34 -8.8 35.68 -2 35 C-5.71366429 33.14316785 -8.2158891 32.48888644 -12.25 31.875 C-13.32765625 31.70742187 -14.4053125 31.53984375 -15.515625 31.3671875 C-16.74539062 31.18542969 -16.74539062 31.18542969 -18 31 Z " fill="#2E2429" transform="translate(39,43)"/>
<path d="M0 0 C2.1519437 3.22791555 2.20086443 4.28400809 2 8 C1.01 8.33 0.02 8.66 -1 9 C-0.525625 9.45375 -0.05125 9.9075 0.4375 10.375 C2.77257348 12.80347641 2.99009105 13.86870645 3.25 17.3125 C2.98499989 21.22125155 2.47143011 22.99897773 0 26 C-1.9375 27 -1.9375 27 -4 27 C-6.25 25.5625 -6.25 25.5625 -8 24 C-8.33 24.66 -8.66 25.32 -9 26 C-10.65 26 -12.3 26 -14 26 C-14.33 24.68 -14.66 23.36 -15 22 C-15.66 22 -16.32 22 -17 22 C-17.33 23.32 -17.66 24.64 -18 26 C-19.65 26 -21.3 26 -23 26 C-23.16589226 19.97258105 -22.57114133 14.42505207 -21.5 8.5 C-21.35691406 7.67757812 -21.21382813 6.85515625 -21.06640625 6.0078125 C-20.71693088 4.00415373 -20.35931844 2.00191702 -20 0 C-17.36 0 -14.72 0 -12 0 C-11.01 5.28 -10.02 10.56 -9 16 C-8.01 15.67 -7.02 15.34 -6 15 C-6.495 14.484375 -6.99 13.96875 -7.5 13.4375 C-9.54050648 10.12167697 -9.34224015 7.83308969 -9 4 C-7.15937223 -0.99598967 -4.98849152 -1.49654746 0 0 Z M-4 16 C-3 19 -3 19 -3 19 Z " fill="#0E0006" transform="translate(134,200)"/>
<path d="M0 0 C2.31 0 4.62 0 7 0 C7.67220351 1.93558599 8.33758077 3.87354372 9 5.8125 C9.556875 7.43091797 9.556875 7.43091797 10.125 9.08203125 C11 12 11 12 11 15 C8.6875 16.125 8.6875 16.125 6 17 C5.01 16.34 4.02 15.68 3 15 C2.95875 15.61875 2.9175 16.2375 2.875 16.875 C2 19 2 19 -0.8125 20.25 C-4 21 -4 21 -8 21 C-8.33 20.34 -8.66 19.68 -9 19 C-9.33 20.32 -9.66 21.64 -10 23 C-11.65 23 -13.3 23 -15 23 C-15 15.74 -15 8.48 -15 1 C-12.03 1 -9.06 1 -6 1 C-3 4 -3 4 -2.8125 6.9375 C-2.874375 7.948125 -2.93625 8.95875 -3 10 C-3 11.32 -3 12.64 -3 14 C-2.01 9.38 -1.02 4.76 0 0 Z " fill="#0E0006" transform="translate(166,199)"/>
<path d="M0 0 C1.98 0 3.96 0 6 0 C6.33 0.66 6.66 1.32 7 2 C7.66 1.34 8.32 0.68 9 0 C12.125 0.375 12.125 0.375 15 1 C15.12190678 9.39802254 14.84327749 17.64251778 14 26 C13.21496094 25.82339844 12.42992188 25.64679688 11.62109375 25.46484375 C9.09498872 24.81758467 9.09498872 24.81758467 7.0625 25.5625 C5 26 5 26 -1 24 C-0.67 16.08 -0.34 8.16 0 0 Z " fill="#0E0006" transform="translate(96,199)"/>
<path d="M0 0 C3.3 0.33 6.6 0.66 10 1 C10.04241723 3.33294775 10.04092937 5.66702567 10 8 C9.67 8.33 9.34 8.66 9 9 C8.95907063 11.33297433 8.95758277 13.66705225 9 16 C7.35 15.67 5.7 15.34 4 15 C4 15.66 4 16.32 4 17 C5.65 17.33 7.3 17.66 9 18 C9 20.31 9 22.62 9 25 C7.35328588 24.69217504 5.70764424 24.37860766 4.0625 24.0625 C2.68771484 23.80146484 2.68771484 23.80146484 1.28515625 23.53515625 C-1 23 -1 23 -2 22 C-2.12742501 19.23813694 -2.18521705 16.51236551 -2.1875 13.75 C-2.19974609 12.98558594 -2.21199219 12.22117188 -2.22460938 11.43359375 C-2.23567367 7.16277608 -1.9715764 3.89639605 0 0 Z " fill="#0F0007" transform="translate(85,198)"/>
<path d="M0 0 C1 1 1 1 1.1875 3.4375 C1 6 1 6 -1 8 C-0.01 8 0.98 8 2 8 C2 11.63 2 15.26 2 19 C-1.00550681 20.50275341 -2.66998307 20.58765005 -6 20 C-9.65356603 16.43184201 -11.31916619 12.30966507 -11.5625 7.25 C-11.36519873 4.24894381 -11.0143718 3.02414462 -9.4375 0.375 C-5.98849348 -1.57059342 -3.75940375 -0.9221179 0 0 Z M-5 5 C-5 5.66 -5 6.32 -5 7 C-4.34 6.67 -3.68 6.34 -3 6 C-3.66 5.67 -4.32 5.34 -5 5 Z M-6 7 C-6 8.98 -6 10.96 -6 13 C-5.67 13 -5.34 13 -5 13 C-5 11.02 -5 9.04 -5 7 C-5.33 7 -5.66 7 -6 7 Z " fill="#0F0006" transform="translate(80,198)"/>
<path d="M0 0 C4.29 0 8.58 0 13 0 C13 2.31 13 4.62 13 7 C12.01 7 11.02 7 10 7 C10.01160156 8.14339844 10.02320313 9.28679687 10.03515625 10.46484375 C10.04453288 11.95572754 10.05363321 13.44661309 10.0625 14.9375 C10.07087891 15.69224609 10.07925781 16.44699219 10.08789062 17.22460938 C10.09652441 19.14994313 10.05224333 21.07535581 10 23 C9.67 23.33 9.34 23.66 9 24 C7.35 24 5.7 24 4 24 C4 18.39 4 12.78 4 7 C2.68 7 1.36 7 0 7 C0 4.69 0 2.38 0 0 Z " fill="#0E0006" transform="translate(137,200)"/>
<path d="M0 0 C1.98 0 3.96 0 6 0 C7.3189103 4.20635138 8.62899071 8.41540259 9.9375 12.625 C10.31068359 13.81480469 10.68386719 15.00460938 11.06835938 16.23046875 C11.42607422 17.38417969 11.78378906 18.53789063 12.15234375 19.7265625 C12.48226318 20.78439941 12.81218262 21.84223633 13.15209961 22.93212891 C13.98492424 25.94545292 14.54428296 28.90922579 15 32 C14.34 32 13.68 32 13 32 C12.34 31.01 11.68 30.02 11 29 C10.21109375 28.55785156 9.4221875 28.11570312 8.609375 27.66015625 C5.45534943 25.65347831 4.16823294 23.62465251 2.25 20.4375 C1.65703125 19.46683594 1.0640625 18.49617188 0.453125 17.49609375 C-0.40582227 16.020644 -1.23648938 14.52702125 -2 13 C-1.34 13 -0.68 13 0 13 C0 11.68 0 10.36 0 9 C-0.66 8.67 -1.32 8.34 -2 8 C0.33333333 5.66666667 2.66666667 3.33333333 5 1 C3.35 1 1.7 1 0 1 C0 0.67 0 0.34 0 0 Z M3 6 C0.73260706 8.73280094 0.73260706 8.73280094 1.18359375 11.38671875 C2.08882644 14.28432961 3.32232155 16.33182008 5.0625 18.8125 C5.61035156 19.60269531 6.15820312 20.39289062 6.72265625 21.20703125 C7.14417969 21.79871094 7.56570312 22.39039062 8 23 C9.30009681 19.09970958 8.40794184 17.26488883 7.1875 13.375 C6.83042969 12.20710938 6.47335938 11.03921875 6.10546875 9.8359375 C5.31838741 6.87964023 5.31838741 6.87964023 3 6 Z M9 23 C10 25 10 25 10 25 Z " fill="#2B2125" transform="translate(33,43)"/>
<path d="M0 0 C-0.66 1.65 -1.32 3.3 -2 5 C-2.66 4.34 -3.32 3.68 -4 3 C-6.10820797 3.3185177 -6.10820797 3.3185177 -8 4 C-7.67 5.32 -7.34 6.64 -7 8 C-6.34 8 -5.68 8 -5 8 C-5 9.32 -5 10.64 -5 12 C-5.99 12.33 -6.98 12.66 -8 13 C-8 12.34 -8 11.68 -8 11 C-13.1693489 11.40556131 -13.1693489 11.40556131 -18 13 C-17.52876557 7.97349945 -15.27355177 3.77514438 -12 0 C-7.79877711 -1.51959126 -4.31643024 -0.92494934 0 0 Z M-12 5 C-12.66 6.32 -13.32 7.64 -14 9 C-12.35 9 -10.7 9 -9 9 C-9.66 7.68 -10.32 6.36 -11 5 C-11.33 5 -11.66 5 -12 5 Z " fill="#24191E" transform="translate(38,44)"/>
<path d="M0 0 C1.98 0 3.96 0 6 0 C6.33 0.99 6.66 1.98 7 3 C9.01508358 3.73323796 9.01508358 3.73323796 11 4 C7.25163939 4.53311805 3.50114226 5.04935091 -0.25 5.5625 C-1.84521484 5.78969727 -1.84521484 5.78969727 -3.47265625 6.02148438 C-4.49746094 6.16005859 -5.52226562 6.29863281 -6.578125 6.44140625 C-7.52075195 6.57232666 -8.46337891 6.70324707 -9.43457031 6.83813477 C-11.93902927 6.99615306 -13.6630263 6.89473653 -16 6 C-16.33 5.34 -16.66 4.68 -17 4 C-11.39 3.01 -5.78 2.02 0 1 C0 0.67 0 0.34 0 0 Z " fill="#32282D" transform="translate(33,76)"/>
<path d="M0 0 C3.66666667 0 7.33333333 0 11 0 C11.6875 1.8125 11.6875 1.8125 12 4 C10.75 5.75 10.75 5.75 9 7 C8.01 7 7.02 7 6 7 C4.26953591 7.15260786 2.54037955 7.32048005 0.8125 7.5 C-0.53908203 7.63921875 -0.53908203 7.63921875 -1.91796875 7.78125 C-2.60503906 7.8534375 -3.29210938 7.925625 -4 8 C-2.87548273 5.0280615 -1.77706209 2.66559313 0 0 Z M5 1 C5.66 2.32 6.32 3.64 7 5 C7.99 3.68 8.98 2.36 10 1 C8.35 1 6.7 1 5 1 Z M2 3 C1.01 4.485 1.01 4.485 0 6 C1.32 5.67 2.64 5.34 4 5 C3.34 4.34 2.68 3.68 2 3 Z " fill="#3D3339" transform="translate(19,55)"/>
<path d="M0 0 C1.66666667 0 3.33333333 0 5 0 C5.33 1.65 5.66 3.3 6 5 C6.66 5 7.32 5 8 5 C8.66 3.68 9.32 2.36 10 1 C10 1.66 10 2.32 10 3 C10.66 3.33 11.32 3.66 12 4 C11.01 5.485 11.01 5.485 10 7 C10.33 7.66 10.66 8.32 11 9 C10.01 9 9.02 9 8 9 C8 8.34 8 7.68 8 7 C6.68 7.33 5.36 7.66 4 8 C3.67 6.68 3.34 5.36 3 4 C1.68 4.99 0.36 5.98 -1 7 C-1.625 5.1875 -1.625 5.1875 -2 3 C-1.34 2.01 -0.68 1.02 0 0 Z " fill="#3B3136" transform="translate(14,63)"/>
<path d="M0 0 C1.58872112 2.52326296 2.10713609 3.52383961 1.4375 6.5 C0.6984561 9.08777293 0.6984561 9.08777293 2.4375 11.3125 C2.953125 11.869375 3.46875 12.42625 4 13 C3.34 14.32 2.68 15.64 2 17 C-0.475 13.04 -0.475 13.04 -3 9 C-2.34 9 -1.68 9 -1 9 C-1 7.68 -1 6.36 -1 5 C-1.66 4.67 -2.32 4.34 -3 4 C-2.01 2.68 -1.02 1.36 0 0 Z " fill="#3D3238" transform="translate(34,47)"/>
<path d="M0 0 C0.33 0 0.66 0 1 0 C1 1.65 1 3.3 1 5 C1.66 5 2.32 5 3 5 C2.67 6.32 2.34 7.64 2 9 C-0.31 9 -2.62 9 -5 9 C-5.33 8.01 -5.66 7.02 -6 6 C-5.01 5.34 -4.02 4.68 -3 4 C-1.98758315 2.67607028 -0.98560611 1.34400833 0 0 Z " fill="#11050A" transform="translate(45,70)"/>
<path d="M0 0 C1.98 0 3.96 0 6 0 C8.20808081 5.19548425 7.93402724 8.58264203 7 14 C5.25833355 10.76547659 3.91022202 7.56503624 3 4 C3.66 3.01 4.32 2.02 5 1 C3.35 1 1.7 1 0 1 C0 0.67 0 0.34 0 0 Z " fill="#41373C" transform="translate(33,43)"/>
<path d="M0 0 C1.32 0.33 2.64 0.66 4 1 C4 2.32 4 3.64 4 5 C3.01 5.33 2.02 5.66 1 6 C1 5.34 1 4.68 1 4 C-4.1693489 4.40556131 -4.1693489 4.40556131 -9 6 C-8.67 4.35 -8.34 2.7 -8 1 C-7.34 1 -6.68 1 -6 1 C-6 1.66 -6 2.32 -6 3 C-3.69 3 -1.38 3 1 3 C0.67 2.01 0.34 1.02 0 0 Z " fill="#160C0F" transform="translate(29,51)"/>
<path d="M0 0 C0.33 0.66 0.66 1.32 1 2 C0.0625 4.125 0.0625 4.125 -1 6 C-1.66 6 -2.32 6 -3 6 C-3 5.34 -3 4.68 -3 4 C-7.65052872 3.73067479 -7.65052872 3.73067479 -12 5 C-11.67 4.01 -11.34 3.02 -11 2 C-10.06027344 1.90912109 -10.06027344 1.90912109 -9.1015625 1.81640625 C-7.87566406 1.69072266 -7.87566406 1.69072266 -6.625 1.5625 C-5.81289063 1.48128906 -5.00078125 1.40007813 -4.1640625 1.31640625 C-1.95727195 1.10909886 -1.95727195 1.10909886 0 0 Z " fill="#170C11" transform="translate(27,60)"/>
<path d="M0 0 C0.66 0 1.32 0 2 0 C2 0.66 2 1.32 2 2 C4.97 2 7.94 2 11 2 C11 2.66 11 3.32 11 4 C11.66 4.33 12.32 4.66 13 5 C11.35 5.33 9.7 5.66 8 6 C8 5.34 8 4.68 8 4 C5.36 4 2.72 4 0 4 C0 2.68 0 1.36 0 0 Z " fill="#1A0E13" transform="translate(11,68)"/>
<path d="M0 0 C0.99 0.33 1.98 0.66 3 1 C4.1875 3.5625 4.1875 3.5625 5 6 C5.66 6 6.32 6 7 6 C7.33 7.32 7.66 8.64 8 10 C4.72847271 9.02738378 3.25454871 8.34232413 1.1875 5.5625 C0 3 0 3 0 0 Z " fill="#31272D" transform="translate(37,62)"/>
<path d="M0 0 C0.66 0.99 1.32 1.98 2 3 C-3.94 3.495 -3.94 3.495 -10 4 C-10.33 3.01 -10.66 2.02 -11 1 C-7.26888555 0.12209072 -3.83204782 -0.34062647 0 0 Z " fill="#3D3438" transform="translate(27,79)"/>
<path d="M0 0 C0.66 0 1.32 0 2 0 C2 0.99 2 1.98 2 3 C3.32 3 4.64 3 6 3 C6 2.01 6 1.02 6 0 C7.32 0.66 8.64 1.32 10 2 C7.50494038 4.49505962 6.32671112 4.35948376 2.875 4.625 C1.96492188 4.69976562 1.05484375 4.77453125 0.1171875 4.8515625 C-0.93082031 4.92503906 -0.93082031 4.92503906 -2 5 C-1.34 3.35 -0.68 1.7 0 0 Z " fill="#33282D" transform="translate(17,58)"/>
<path d="M0 0 C0.33 0 0.66 0 1 0 C1.309375 0.94875 1.61875 1.8975 1.9375 2.875 C2.87394742 5.86080408 2.87394742 5.86080408 4 8 C6.02463255 8.65213292 6.02463255 8.65213292 8 9 C5.69 9.33 3.38 9.66 1 10 C-0.1577506 6.52674819 -0.06866652 3.63932552 0 0 Z " fill="#21161A" transform="translate(12,73)"/>
<path d="M0 0 C3.465 1.98 3.465 1.98 7 4 C6.67 4.99 6.34 5.98 6 7 C3.5625 6.3125 3.5625 6.3125 1 5 C0.1875 2.375 0.1875 2.375 0 0 Z " fill="#30262B" transform="translate(27,62)"/>
<path d="M0 0 C0.66 1.32 1.32 2.64 2 4 C1.67 4.33 1.34 4.66 1 5 C2.65 5 4.3 5 6 5 C6 5.66 6 6.32 6 7 C3.69 7 1.38 7 -1 7 C-1.625 5.1875 -1.625 5.1875 -2 3 C-1.34 2.01 -0.68 1.02 0 0 Z " fill="#31262B" transform="translate(24,47)"/>
<path d="M0 0 C0.33 0.66 0.66 1.32 1 2 C1.66 2 2.32 2 3 2 C3 2.66 3 3.32 3 4 C1 5.625 1 5.625 -1 7 C-1.625 5.1875 -1.625 5.1875 -2 3 C-1.34 2.01 -0.68 1.02 0 0 Z " fill="#554B50" transform="translate(14,63)"/>
<path d="" fill="#BFBFBF" transform="translate(0,0)"/>
</svg>
