<svg xmlns="http://www.w3.org/2000/svg" xmlns:xlink="http://www.w3.org/1999/xlink" width="500" zoomAndPan="magnify" viewBox="0 0 375 374.999991" height="500" preserveAspectRatio="xMidYMid meet" version="1.0"><defs><g/><clipPath id="4ec56036cf"><path d="M 38.664062 37.5 L 180.804688 37.5 L 180.804688 244.351562 L 38.664062 244.351562 Z M 38.664062 37.5 " clip-rule="nonzero"/></clipPath><clipPath id="3b72dddf39"><path d="M 82.660156 240.160156 C 90.953125 242.808594 99.785156 244.097656 108.921875 244.097656 C 118.980469 244.097656 128.421875 242.886719 136.871094 240.617188 C 145.699219 238.195312 153.453125 234.257812 159.828125 228.960938 C 166.355469 223.589844 171.421875 216.550781 175.03125 208.074219 C 178.5625 199.75 180.328125 189.6875 180.328125 178.183594 C 180.328125 168.722656 178.871094 160.550781 175.953125 153.816406 C 173.035156 147.078125 169.117188 141.402344 164.359375 136.789062 C 159.675781 132.324219 154.375 128.539062 148.386719 125.664062 C 142.859375 122.9375 137.101562 120.515625 131.265625 118.472656 C 125.660156 116.507812 120.132812 114.691406 114.679688 113.023438 C 109.765625 111.511719 105.3125 109.769531 101.472656 107.726562 C 98.09375 105.988281 95.332031 103.867188 93.332031 101.445312 C 91.644531 99.554688 90.875 97.058594 90.875 93.878906 C 90.875 90.019531 92.257812 86.992188 95.175781 84.496094 C 98.324219 81.847656 103.390625 80.484375 110.148438 80.484375 C 116.136719 80.484375 120.667969 82.074219 123.816406 85.402344 C 127.117188 88.882812 128.652344 93.578125 128.652344 99.859375 L 128.652344 108.789062 L 176.875 108.789062 L 176.875 99.023438 C 176.875 88.582031 175.03125 79.347656 171.5 71.554688 C 167.890625 63.761719 162.976562 57.175781 156.832031 52.105469 C 150.765625 47.109375 143.550781 43.328125 135.488281 40.980469 C 127.65625 38.636719 119.285156 37.5 110.457031 37.5 C 101.78125 37.5 93.257812 38.636719 85.273438 40.980469 C 77.054688 43.328125 69.761719 46.960938 63.464844 51.804688 C 57.09375 56.722656 51.949219 62.925781 48.1875 70.34375 C 44.347656 77.761719 42.425781 86.539062 42.425781 96.375 C 42.425781 104.09375 43.347656 110.980469 45.191406 116.882812 C 47.035156 122.789062 49.644531 128.085938 53.023438 132.472656 C 56.324219 136.863281 60.164062 140.648438 64.464844 143.75 C 68.609375 146.703125 72.988281 149.351562 77.671875 151.46875 C 82.125 153.585938 86.882812 155.402344 91.644531 156.992188 C 96.175781 158.507812 100.550781 159.945312 104.851562 161.457031 C 108.921875 162.894531 112.835938 164.332031 116.523438 165.921875 C 119.824219 167.359375 122.664062 169.027344 125.121094 170.917969 C 127.273438 172.660156 128.960938 174.625 130.191406 176.972656 C 131.339844 179.167969 131.957031 182.042969 131.957031 185.371094 C 131.957031 187.414062 131.648438 189.308594 130.878906 191.199219 C 130.265625 192.941406 129.269531 194.453125 127.734375 195.816406 C 126.195312 197.253906 124.125 198.464844 121.359375 199.449219 C 118.519531 200.507812 114.832031 200.960938 110.457031 200.960938 C 106.617188 200.960938 103.160156 200.429688 100.320312 199.296875 C 97.558594 198.238281 95.253906 196.722656 93.410156 194.757812 C 91.492188 192.789062 90.109375 190.441406 89.109375 187.640625 C 88.035156 184.691406 87.5 181.359375 87.5 177.652344 C 87.5 177.125 87.5 176.441406 87.574219 175.683594 C 87.652344 174.398438 87.730469 173.640625 87.730469 173.265625 L 87.730469 166.832031 L 38.894531 166.832031 L 38.894531 173.265625 C 38.894531 173.871094 38.816406 174.625 38.816406 175.457031 C 38.742188 176.746094 38.664062 178.03125 38.664062 179.242188 C 38.664062 189.761719 40.585938 199.144531 44.421875 207.242188 C 48.261719 215.339844 53.558594 222.226562 60.085938 227.675781 C 66.535156 233.351562 74.136719 237.4375 82.660156 240.160156 Z M 82.660156 240.160156 " clip-rule="nonzero"/></clipPath><clipPath id="54417d5004"><path d="M 186.542969 37.5 L 229.449219 37.5 L 229.449219 244.097656 L 186.542969 244.097656 Z M 186.542969 37.5 " clip-rule="nonzero"/></clipPath><clipPath id="b8a8a66a17"><path d="M 235.742188 37.5 L 276.898438 37.5 L 276.898438 196.945312 L 235.742188 196.945312 Z M 235.742188 196.945312 L 344.535156 196.945312 L 344.535156 244.097656 L 235.742188 244.097656 Z M 235.742188 196.945312 " clip-rule="nonzero"/></clipPath></defs><rect x="-37.5" width="450" fill="#ffffff" y="-37.499999" height="449.999989" fill-opacity="1"/><rect x="-37.5" width="450" fill="#000000" y="-37.499999" height="449.999989" fill-opacity="1"/><g clip-path="url(#4ec56036cf)"><g clip-path="url(#3b72dddf39)"><path fill="#b22d30" d="M 38.664062 37.5 L 180.253906 37.5 L 180.253906 244.351562 L 38.664062 244.351562 Z M 38.664062 37.5 " fill-opacity="1" fill-rule="nonzero"/></g></g><g clip-path="url(#54417d5004)"><path fill="#fddb19" d="M 186.542969 37.5 L 229.449219 37.5 L 229.449219 244.152344 L 186.542969 244.152344 Z M 186.542969 37.5 " fill-opacity="1" fill-rule="nonzero"/></g><g clip-path="url(#b8a8a66a17)"><path fill="#f58634" d="M 235.742188 37.5 L 344.535156 37.5 L 344.535156 244.035156 L 235.742188 244.035156 Z M 235.742188 37.5 " fill-opacity="1" fill-rule="nonzero"/></g><g fill="#b22d30" fill-opacity="1"><g transform="translate(39.741895, 294.784973)"><g><path d="M 16.375 0.625 C 14.757812 0.625 13.117188 0.421875 11.453125 0.015625 C 9.785156 -0.378906 8.242188 -1.015625 6.828125 -1.890625 C 5.421875 -2.773438 4.238281 -3.960938 3.28125 -5.453125 C 2.332031 -6.941406 1.753906 -8.773438 1.546875 -10.953125 L 8.125 -10.953125 C 8.507812 -9.359375 9.125 -8.113281 9.96875 -7.21875 C 10.820312 -6.320312 11.816406 -5.695312 12.953125 -5.34375 C 14.085938 -4.988281 15.242188 -4.8125 16.421875 -4.8125 C 18.160156 -4.8125 19.617188 -5.175781 20.796875 -5.90625 C 21.972656 -6.644531 22.5625 -7.828125 22.5625 -9.453125 C 22.5625 -10.628906 22.175781 -11.539062 21.40625 -12.1875 C 20.644531 -12.832031 19.648438 -13.335938 18.421875 -13.703125 C 17.203125 -14.066406 15.875 -14.398438 14.4375 -14.703125 C 13.050781 -15.023438 11.664062 -15.375 10.28125 -15.75 C 8.894531 -16.132812 7.617188 -16.664062 6.453125 -17.34375 C 5.296875 -18.019531 4.367188 -18.925781 3.671875 -20.0625 C 2.984375 -21.195312 2.640625 -22.644531 2.640625 -24.40625 C 2.640625 -26.582031 3.160156 -28.398438 4.203125 -29.859375 C 5.253906 -31.316406 6.675781 -32.421875 8.46875 -33.171875 C 10.269531 -33.921875 12.300781 -34.296875 14.5625 -34.296875 C 16.738281 -34.296875 18.785156 -33.910156 20.703125 -33.140625 C 22.617188 -32.378906 24.238281 -31.21875 25.5625 -29.65625 C 26.882812 -28.101562 27.722656 -26.101562 28.078125 -23.65625 L 21.578125 -23.65625 C 21.171875 -25.457031 20.3125 -26.773438 19 -27.609375 C 17.6875 -28.453125 16.164062 -28.875 14.4375 -28.875 C 12.84375 -28.875 11.53125 -28.539062 10.5 -27.875 C 9.46875 -27.207031 8.953125 -26.226562 8.953125 -24.9375 C 8.953125 -23.90625 9.3125 -23.09375 10.03125 -22.5 C 10.757812 -21.914062 11.710938 -21.453125 12.890625 -21.109375 C 14.066406 -20.773438 15.332031 -20.445312 16.6875 -20.125 C 18.09375 -19.832031 19.507812 -19.472656 20.9375 -19.046875 C 22.363281 -18.617188 23.6875 -18.046875 24.90625 -17.328125 C 26.132812 -16.609375 27.113281 -15.644531 27.84375 -14.4375 C 28.582031 -13.226562 28.953125 -11.664062 28.953125 -9.75 C 28.953125 -6.570312 27.847656 -4.046875 25.640625 -2.171875 C 23.429688 -0.304688 20.34375 0.625 16.375 0.625 Z M 16.375 0.625 "/></g></g></g><g fill="#b22d30" fill-opacity="1"><g transform="translate(70.454536, 294.784973)"><g><path d="M 8.703125 0 L 2.734375 0 L 2.734375 -33.671875 L 8.703125 -33.671875 L 8.703125 -21.625 C 9.703125 -23.007812 10.738281 -23.96875 11.8125 -24.5 C 12.882812 -25.03125 14.082031 -25.296875 15.40625 -25.296875 C 17.664062 -25.296875 19.382812 -24.890625 20.5625 -24.078125 C 21.738281 -23.265625 22.59375 -22.285156 23.125 -21.140625 C 23.65625 -20.054688 23.960938 -18.945312 24.046875 -17.8125 C 24.140625 -16.675781 24.1875 -15.488281 24.1875 -14.25 L 24.1875 0 L 18.234375 0 L 18.234375 -14.34375 C 18.234375 -16.757812 17.832031 -18.410156 17.03125 -19.296875 C 16.332031 -20.023438 15.289062 -20.390625 13.90625 -20.390625 C 12.195312 -20.390625 10.929688 -19.890625 10.109375 -18.890625 C 9.609375 -18.304688 9.25 -17.523438 9.03125 -16.546875 C 8.8125 -15.578125 8.703125 -14.269531 8.703125 -12.625 Z M 8.703125 0 "/></g></g></g><g fill="#b22d30" fill-opacity="1"><g transform="translate(97.151591, 294.784973)"><g><path d="M 14.34375 0.484375 C 11.875 0.484375 9.679688 -0.0546875 7.765625 -1.140625 C 5.859375 -2.234375 4.363281 -3.757812 3.28125 -5.71875 C 2.207031 -7.675781 1.671875 -9.945312 1.671875 -12.53125 C 1.671875 -15.03125 2.207031 -17.238281 3.28125 -19.15625 C 4.363281 -21.070312 5.851562 -22.570312 7.75 -23.65625 C 9.644531 -24.75 11.84375 -25.296875 14.34375 -25.296875 C 16.84375 -25.296875 19.046875 -24.75 20.953125 -23.65625 C 22.867188 -22.570312 24.363281 -21.070312 25.4375 -19.15625 C 26.519531 -17.238281 27.0625 -15.03125 27.0625 -12.53125 C 27.0625 -9.976562 26.53125 -7.722656 25.46875 -5.765625 C 24.40625 -3.804688 22.914062 -2.273438 21 -1.171875 C 19.09375 -0.0664062 16.875 0.484375 14.34375 0.484375 Z M 14.34375 -4.640625 C 16.289062 -4.640625 17.863281 -5.375 19.0625 -6.84375 C 20.269531 -8.3125 20.875 -10.207031 20.875 -12.53125 C 20.875 -14.007812 20.601562 -15.320312 20.0625 -16.46875 C 19.519531 -17.613281 18.757812 -18.515625 17.78125 -19.171875 C 16.8125 -19.835938 15.664062 -20.171875 14.34375 -20.171875 C 13.082031 -20.171875 11.953125 -19.847656 10.953125 -19.203125 C 9.953125 -18.554688 9.171875 -17.65625 8.609375 -16.5 C 8.046875 -15.351562 7.765625 -14.03125 7.765625 -12.53125 C 7.765625 -10.175781 8.378906 -8.269531 9.609375 -6.8125 C 10.847656 -5.363281 12.425781 -4.640625 14.34375 -4.640625 Z M 14.34375 -4.640625 "/></g></g></g><g fill="#b22d30" fill-opacity="1"><g transform="translate(125.92264, 294.784973)"><g><path d="M 15.71875 -25.25 C 17.894531 -25.25 19.796875 -24.703125 21.421875 -23.609375 C 23.054688 -22.523438 24.328125 -21.007812 25.234375 -19.0625 C 26.148438 -17.125 26.609375 -14.890625 26.609375 -12.359375 C 26.609375 -9.828125 26.148438 -7.585938 25.234375 -5.640625 C 24.328125 -3.703125 23.054688 -2.1875 21.421875 -1.09375 C 19.796875 -0.0078125 17.894531 0.53125 15.71875 0.53125 C 14.269531 0.53125 12.988281 0.273438 11.875 -0.234375 C 10.757812 -0.753906 9.703125 -1.722656 8.703125 -3.140625 L 8.703125 8.921875 L 2.734375 8.921875 L 2.734375 -24.765625 L 8.703125 -24.765625 L 8.703125 -21.625 C 9.703125 -23.007812 10.757812 -23.957031 11.875 -24.46875 C 12.988281 -24.988281 14.269531 -25.25 15.71875 -25.25 Z M 14.34375 -20.125 C 12.457031 -20.125 10.914062 -19.398438 9.71875 -17.953125 C 8.53125 -16.515625 7.9375 -14.648438 7.9375 -12.359375 C 7.9375 -10.066406 8.53125 -8.195312 9.71875 -6.75 C 10.914062 -5.3125 12.457031 -4.59375 14.34375 -4.59375 C 16.257812 -4.59375 17.78125 -5.328125 18.90625 -6.796875 C 20.039062 -8.265625 20.609375 -10.117188 20.609375 -12.359375 C 20.609375 -14.628906 20.039062 -16.488281 18.90625 -17.9375 C 17.78125 -19.394531 16.257812 -20.125 14.34375 -20.125 Z M 14.34375 -20.125 "/></g></g></g><g fill="#b22d30" fill-opacity="1"><g transform="translate(154.296528, 294.784973)"><g><path d="M 13.421875 0.484375 C 11.535156 0.484375 9.738281 0.179688 8.03125 -0.421875 C 6.320312 -1.023438 4.882812 -1.976562 3.71875 -3.28125 C 2.5625 -4.59375 1.835938 -6.28125 1.546875 -8.34375 L 7.421875 -8.34375 C 7.796875 -6.988281 8.5 -5.957031 9.53125 -5.25 C 10.5625 -4.539062 11.84375 -4.1875 13.375 -4.1875 C 14.632812 -4.1875 15.675781 -4.4375 16.5 -4.9375 C 17.332031 -5.4375 17.75 -6.144531 17.75 -7.0625 C 17.75 -7.800781 17.472656 -8.382812 16.921875 -8.8125 C 16.378906 -9.238281 15.664062 -9.566406 14.78125 -9.796875 C 13.90625 -10.035156 12.9375 -10.257812 11.875 -10.46875 C 10.8125 -10.664062 9.726562 -10.910156 8.625 -11.203125 C 7.519531 -11.503906 6.507812 -11.910156 5.59375 -12.421875 C 4.6875 -12.941406 3.953125 -13.632812 3.390625 -14.5 C 2.835938 -15.363281 2.5625 -16.488281 2.5625 -17.875 C 2.5625 -19.613281 3 -21.023438 3.875 -22.109375 C 4.757812 -23.203125 5.929688 -24.003906 7.390625 -24.515625 C 8.847656 -25.035156 10.429688 -25.296875 12.140625 -25.296875 C 15.023438 -25.296875 17.4375 -24.566406 19.375 -23.109375 C 21.320312 -21.648438 22.515625 -19.566406 22.953125 -16.859375 L 17.34375 -16.859375 C 16.988281 -18.210938 16.328125 -19.175781 15.359375 -19.75 C 14.390625 -20.320312 13.300781 -20.609375 12.09375 -20.609375 C 10.914062 -20.609375 9.976562 -20.378906 9.28125 -19.921875 C 8.59375 -19.472656 8.25 -18.863281 8.25 -18.09375 C 8.25 -17.414062 8.515625 -16.882812 9.046875 -16.5 C 9.578125 -16.125 10.273438 -15.832031 11.140625 -15.625 C 12.015625 -15.414062 12.953125 -15.207031 13.953125 -15 C 15.035156 -14.800781 16.144531 -14.5625 17.28125 -14.28125 C 18.414062 -14 19.457031 -13.597656 20.40625 -13.078125 C 21.363281 -12.566406 22.132812 -11.863281 22.71875 -10.96875 C 23.3125 -10.070312 23.609375 -8.914062 23.609375 -7.5 C 23.609375 -5.09375 22.710938 -3.160156 20.921875 -1.703125 C 19.128906 -0.242188 16.628906 0.484375 13.421875 0.484375 Z M 13.421875 0.484375 "/></g></g></g><g fill="#fddb19" fill-opacity="1"><g transform="translate(179.729279, 294.784973)"><g><path d="M 9.359375 0 L 3 0 L 3 -33.671875 L 9.359375 -33.671875 Z M 9.359375 0 "/></g></g></g><g fill="#fddb19" fill-opacity="1"><g transform="translate(192.084939, 294.784973)"><g><path d="M 8.65625 0 L 2.6875 0 L 2.6875 -24.765625 L 8.65625 -24.765625 L 8.65625 -21.625 C 9.65625 -23.007812 10.695312 -23.96875 11.78125 -24.5 C 12.875 -25.03125 14.082031 -25.296875 15.40625 -25.296875 C 17.664062 -25.296875 19.378906 -24.890625 20.546875 -24.078125 C 21.710938 -23.265625 22.570312 -22.285156 23.125 -21.140625 C 23.625 -20.054688 23.914062 -18.945312 24 -17.8125 C 24.09375 -16.675781 24.140625 -15.488281 24.140625 -14.25 L 24.140625 0 L 18.234375 0 L 18.234375 -14.34375 C 18.234375 -15.613281 18.128906 -16.632812 17.921875 -17.40625 C 17.710938 -18.1875 17.40625 -18.816406 17 -19.296875 C 16.289062 -20.023438 15.242188 -20.390625 13.859375 -20.390625 C 12.179688 -20.390625 10.929688 -19.890625 10.109375 -18.890625 C 9.609375 -18.304688 9.238281 -17.523438 9 -16.546875 C 8.769531 -15.578125 8.65625 -14.269531 8.65625 -12.625 Z M 8.65625 0 "/></g></g></g><g fill="#f58634" fill-opacity="1"><g transform="translate(218.785964, 294.784973)"><g><path d="M 23.609375 0 L 3 0 L 3 -33.671875 L 9.359375 -33.671875 L 9.359375 -5.6875 L 23.609375 -5.6875 Z M 23.609375 0 "/></g></g></g><g fill="#f58634" fill-opacity="1"><g transform="translate(242.879508, 294.784973)"><g><path d="M 14.34375 0.484375 C 11.875 0.484375 9.679688 -0.0546875 7.765625 -1.140625 C 5.859375 -2.234375 4.363281 -3.757812 3.28125 -5.71875 C 2.207031 -7.675781 1.671875 -9.945312 1.671875 -12.53125 C 1.671875 -15.03125 2.207031 -17.238281 3.28125 -19.15625 C 4.363281 -21.070312 5.851562 -22.570312 7.75 -23.65625 C 9.644531 -24.75 11.84375 -25.296875 14.34375 -25.296875 C 16.84375 -25.296875 19.046875 -24.75 20.953125 -23.65625 C 22.867188 -22.570312 24.363281 -21.070312 25.4375 -19.15625 C 26.519531 -17.238281 27.0625 -15.03125 27.0625 -12.53125 C 27.0625 -9.976562 26.53125 -7.722656 25.46875 -5.765625 C 24.40625 -3.804688 22.914062 -2.273438 21 -1.171875 C 19.09375 -0.0664062 16.875 0.484375 14.34375 0.484375 Z M 14.34375 -4.640625 C 16.289062 -4.640625 17.863281 -5.375 19.0625 -6.84375 C 20.269531 -8.3125 20.875 -10.207031 20.875 -12.53125 C 20.875 -14.007812 20.601562 -15.320312 20.0625 -16.46875 C 19.519531 -17.613281 18.757812 -18.515625 17.78125 -19.171875 C 16.8125 -19.835938 15.664062 -20.171875 14.34375 -20.171875 C 13.082031 -20.171875 11.953125 -19.847656 10.953125 -19.203125 C 9.953125 -18.554688 9.171875 -17.65625 8.609375 -16.5 C 8.046875 -15.351562 7.765625 -14.03125 7.765625 -12.53125 C 7.765625 -10.175781 8.378906 -8.269531 9.609375 -6.8125 C 10.847656 -5.363281 12.425781 -4.640625 14.34375 -4.640625 Z M 14.34375 -4.640625 "/></g></g></g><g fill="#f58634" fill-opacity="1"><g transform="translate(271.650556, 294.784973)"><g><path d="M 14.25 0.484375 C 11.78125 0.484375 9.597656 -0.0546875 7.703125 -1.140625 C 5.804688 -2.234375 4.328125 -3.757812 3.265625 -5.71875 C 2.203125 -7.675781 1.671875 -9.945312 1.671875 -12.53125 C 1.671875 -15.03125 2.203125 -17.238281 3.265625 -19.15625 C 4.328125 -21.070312 5.796875 -22.570312 7.671875 -23.65625 C 9.554688 -24.75 11.75 -25.296875 14.25 -25.296875 C 17.226562 -25.296875 19.753906 -24.53125 21.828125 -23 C 23.898438 -21.46875 25.242188 -19.421875 25.859375 -16.859375 L 19.375 -16.859375 C 18.613281 -19.242188 16.90625 -20.4375 14.25 -20.4375 C 12.34375 -20.4375 10.785156 -19.710938 9.578125 -18.265625 C 8.367188 -16.828125 7.765625 -14.914062 7.765625 -12.53125 C 7.765625 -10.0625 8.367188 -8.082031 9.578125 -6.59375 C 10.785156 -5.113281 12.34375 -4.375 14.25 -4.375 C 15.695312 -4.375 16.859375 -4.722656 17.734375 -5.421875 C 18.617188 -6.128906 19.210938 -7.101562 19.515625 -8.34375 L 25.953125 -8.34375 C 25.566406 -6.488281 24.828125 -4.898438 23.734375 -3.578125 C 22.648438 -2.253906 21.289062 -1.242188 19.65625 -0.546875 C 18.03125 0.140625 16.226562 0.484375 14.25 0.484375 Z M 14.25 0.484375 "/></g></g></g><g fill="#f58634" fill-opacity="1"><g transform="translate(299.053649, 294.784973)"><g><path d="M 9.84375 0.484375 C 7.519531 0.484375 5.582031 -0.140625 4.03125 -1.390625 C 2.488281 -2.640625 1.71875 -4.441406 1.71875 -6.796875 C 1.71875 -8.117188 1.972656 -9.242188 2.484375 -10.171875 C 3.003906 -11.097656 3.691406 -11.859375 4.546875 -12.453125 C 5.335938 -13.003906 6.238281 -13.441406 7.25 -13.765625 C 8.269531 -14.085938 9.296875 -14.351562 10.328125 -14.5625 L 17.703125 -15.9375 C 17.640625 -17.46875 17.242188 -18.628906 16.515625 -19.421875 C 15.773438 -20.210938 14.671875 -20.609375 13.203125 -20.609375 C 12.078125 -20.609375 11.082031 -20.273438 10.21875 -19.609375 C 9.351562 -18.953125 8.800781 -18.035156 8.5625 -16.859375 L 2.640625 -16.859375 C 2.941406 -18.804688 3.617188 -20.394531 4.671875 -21.625 C 5.734375 -22.863281 7.019531 -23.785156 8.53125 -24.390625 C 10.050781 -24.992188 11.617188 -25.296875 13.234375 -25.296875 C 14.679688 -25.296875 16.066406 -25.085938 17.390625 -24.671875 C 18.710938 -24.265625 19.832031 -23.632812 20.75 -22.78125 C 21.71875 -21.925781 22.40625 -20.945312 22.8125 -19.84375 C 23.226562 -18.738281 23.472656 -17.585938 23.546875 -16.390625 C 23.617188 -15.203125 23.65625 -14.035156 23.65625 -12.890625 L 23.65625 0 L 17.703125 0 L 17.703125 -3.359375 C 17.078125 -2.265625 16.328125 -1.4375 15.453125 -0.875 C 14.679688 -0.375 13.816406 -0.0234375 12.859375 0.171875 C 11.910156 0.378906 10.90625 0.484375 9.84375 0.484375 Z M 11.296875 -4.1875 C 12.472656 -4.1875 13.535156 -4.425781 14.484375 -4.90625 C 15.773438 -5.550781 16.644531 -6.414062 17.09375 -7.5 C 17.550781 -8.59375 17.796875 -9.945312 17.828125 -11.5625 L 11.921875 -10.375 C 11.066406 -10.226562 10.363281 -10.035156 9.8125 -9.796875 C 9.269531 -9.566406 8.820312 -9.285156 8.46875 -8.953125 C 8.238281 -8.722656 8.050781 -8.445312 7.90625 -8.125 C 7.757812 -7.800781 7.6875 -7.429688 7.6875 -7.015625 C 7.6875 -6.109375 8.03125 -5.410156 8.71875 -4.921875 C 9.40625 -4.429688 10.265625 -4.1875 11.296875 -4.1875 Z M 11.296875 -4.1875 "/></g></g></g><g fill="#f58634" fill-opacity="1"><g transform="translate(325.132926, 294.784973)"><g><path d="M 12.1875 0 L 8.34375 0 C 6.519531 0 5.109375 -0.425781 4.109375 -1.28125 C 3.109375 -2.132812 2.609375 -3.515625 2.609375 -5.421875 L 2.609375 -33.671875 L 8.5625 -33.671875 L 8.5625 -7.1875 C 8.5625 -6.363281 8.710938 -5.78125 9.015625 -5.4375 C 9.328125 -5.101562 9.851562 -4.9375 10.59375 -4.9375 L 12.1875 -4.9375 Z M 12.1875 0 "/></g></g></g></svg>