<?xml version="1.0" standalone="no"?>
<!DOCTYPE svg PUBLIC "-//W3C//DTD SVG 20010904//EN"
 "http://www.w3.org/TR/2001/REC-SVG-20010904/DTD/svg10.dtd">
<svg version="1.0" xmlns="http://www.w3.org/2000/svg"
 width="205.000000pt" height="114.000000pt" viewBox="0 0 205.000000 114.000000"
 preserveAspectRatio="xMidYMid meet">

<g transform="translate(0.000000,114.000000) scale(0.100000,-0.100000)"
fill="#000000" stroke="none">
<path d="M990 1080 c-197 -3 -302 -9 -315 -17 -11 -6 -33 -25 -50 -43 -28 -29
-30 -37 -30 -102 0 -69 1 -71 38 -103 21 -18 52 -35 69 -39 17 -3 118 -6 224
-6 181 0 195 -1 214 -20 11 -11 20 -26 20 -33 0 -34 -22 -37 -256 -37 -128 0
-235 -4 -238 -9 -3 -4 4 -25 14 -47 11 -21 20 -44 20 -52 0 -11 45 -13 248
-10 226 3 250 5 281 23 72 42 96 112 66 190 -12 34 -27 51 -59 70 -42 24 -47
25 -247 25 -221 0 -249 6 -249 54 0 45 9 46 297 46 l274 0 -3 57 c-2 31 -7 57
-13 57 -5 1 -143 -1 -305 -4z"/>
<path d="M1387 1083 c-5 -8 -11 -378 -8 -490 l1 -33 210 0 210 0 0 60 0 60
-135 0 -135 0 0 200 0 200 -47 0 c-27 0 -58 3 -69 6 -12 3 -24 2 -27 -3z"/>
<path d="M55 1056 c-29 -29 -33 -80 -9 -114 14 -21 23 -22 129 -22 111 0 114
-1 134 -26 12 -15 21 -31 21 -35 0 -5 24 -59 54 -121 29 -62 57 -124 61 -137
17 -55 107 -220 149 -272 58 -73 111 -99 206 -99 51 0 70 4 70 13 0 7 14 34
30 61 53 83 148 107 247 62 52 -25 103 -83 103 -118 0 -14 8 -18 33 -18 28 0
35 5 45 34 28 75 97 125 175 126 83 0 175 -64 193 -135 l7 -27 98 4 c110 3
140 17 171 79 16 30 18 68 18 332 l0 297 -49 0 c-86 0 -87 -3 -82 -349 1 -136
0 -145 -20 -168 l-22 -23 -528 0 -527 0 -29 28 c-29 28 -71 115 -219 457 l-82
190 -176 3 c-176 2 -176 2 -201 -22z"/>
<path d="M52 845 c6 -6 210 -37 214 -32 2 2 2 12 -2 21 -5 14 -22 16 -111 15
-57 0 -103 -2 -101 -4z"/>
<path d="M215 711 c55 -9 101 -16 103 -15 1 0 0 9 -4 18 -5 13 -22 16 -103 15
l-96 -1 100 -17z"/>
<path d="M250 600 c125 -24 123 -24 110 0 -10 18 -20 20 -108 19 l-97 -1 95
-18z"/>
<path d="M1003 320 c-82 -50 -96 -166 -28 -230 37 -35 110 -39 155 -8 66 44
87 124 50 186 -41 67 -116 89 -177 52z m99 -87 c22 -20 23 -51 1 -75 -21 -24
-58 -23 -83 2 -22 22 -25 42 -10 71 13 24 66 26 92 2z"/>
<path d="M1464 330 c-11 -4 -35 -25 -53 -46 -31 -35 -33 -41 -29 -96 4 -50 9
-64 35 -90 59 -59 161 -45 209 28 23 35 23 113 0 148 -35 54 -106 79 -162 56z
m96 -100 c24 -24 25 -38 4 -68 -19 -28 -67 -29 -94 -2 -22 22 -25 42 -10 71
15 26 73 26 100 -1z"/>
</g>
</svg>
